<svg width="14" height="17" viewBox="0 0 14 17" fill="none" xmlns="http://www.w3.org/2000/svg">
<g opacity="0.299219">
<path fill-rule="evenodd" clip-rule="evenodd" d="M6.86358 0C8.42298 0 9.93702 0.52656 11.1308 1.4828V1.48276C12.6902 2.73112 13.6074 4.50612 13.7183 6.47956C13.8245 8.42792 13.0964 10.3342 11.7214 11.7092L7.16342 16.2076C6.98686 16.3826 6.68062 16.381 6.50406 16.206L2.01046 11.7124C0.63234 10.3343 -0.097352 8.42648 0.01046 6.4796C0.11982 4.50624 1.03858 2.73124 2.59638 1.4828C3.78858 0.52656 5.30422 0 6.86358 0ZM3.8011 6.85952C3.8011 8.54856 5.1745 9.922 6.86358 9.922C8.55262 9.922 9.92762 8.5486 9.92606 6.85952C9.92606 5.17048 8.55266 3.79704 6.86358 3.79704C5.17454 3.79704 3.8011 5.17044 3.8011 6.85952Z" fill="white"/>
<path d="M6.86358 5.3667C6.04014 5.3667 5.37138 6.03546 5.37138 6.8589C5.37138 7.68234 6.04014 8.3511 6.86358 8.3511C7.68702 8.3511 8.35578 7.68234 8.35578 6.8589C8.35578 6.03546 7.68702 5.3667 6.86358 5.3667Z" fill="white"/>
</g>
</svg>
